<svg width="72" height="32" viewBox="0 0 72 32" fill="none" xmlns="http://www.w3.org/2000/svg">
<path d="M8.36372 24.9051V23.6476C8.36372 23.1655 8.07553 22.8511 7.58156 22.8511C7.33463 22.8511 7.06706 22.935 6.88181 23.2075C6.73781 22.9769 6.53203 22.8511 6.22331 22.8511C6.01744 22.8511 5.81175 22.914 5.64703 23.1445V22.8931H5.21484V24.9051H5.64703V23.7943C5.64703 23.438 5.83228 23.2703 6.12047 23.2703C6.40847 23.2703 6.55266 23.459 6.55266 23.7943V24.9051H6.98484V23.7943C6.98484 23.438 7.19053 23.2703 7.45809 23.2703C7.74628 23.2703 7.89028 23.459 7.89028 23.7943V24.9051H8.36372ZM14.7641 22.8931H14.0645V22.2852H13.6323V22.8931H13.2413V23.2912H13.6322V24.2135C13.6322 24.6747 13.8174 24.9471 14.3114 24.9471C14.4967 24.9471 14.7023 24.8842 14.8465 24.8004L14.723 24.4231C14.5995 24.5069 14.4555 24.5279 14.3526 24.5279C14.1468 24.5279 14.0645 24.4022 14.0645 24.1925V23.2912H14.7641V22.8931ZM18.4275 22.851C18.1806 22.851 18.0159 22.9769 17.913 23.1445V22.8931H17.4808V24.9051H17.913V23.7734C17.913 23.438 18.057 23.2494 18.3246 23.2494C18.4069 23.2494 18.5098 23.2704 18.5921 23.2913L18.7156 22.8721C18.6333 22.8511 18.5098 22.8511 18.4275 22.8511M12.8914 23.0608C12.6855 22.9141 12.3974 22.8512 12.0887 22.8512C11.5948 22.8512 11.2656 23.1027 11.2656 23.501C11.2656 23.8364 11.5125 24.0249 11.9447 24.0879L12.1505 24.1089C12.3769 24.1507 12.5003 24.2136 12.5003 24.3184C12.5003 24.4651 12.3357 24.5699 12.0475 24.5699C11.7593 24.5699 11.533 24.4651 11.3889 24.3604L11.1832 24.6957C11.4096 24.8633 11.7183 24.9472 12.0269 24.9472C12.6032 24.9472 12.9325 24.6748 12.9325 24.2974C12.9325 23.9411 12.665 23.7524 12.2533 23.6896L12.0475 23.6686C11.8623 23.6476 11.7183 23.6058 11.7183 23.4801C11.7183 23.3333 11.8623 23.2495 12.0887 23.2495C12.3357 23.2495 12.5827 23.3542 12.7061 23.4171L12.8914 23.0608ZM24.3753 22.8512C24.1283 22.8512 23.9636 22.977 23.8607 23.1446V22.8932H23.4285V24.9052H23.8607V23.7735C23.8607 23.4381 24.0048 23.2495 24.2723 23.2495C24.3547 23.2495 24.4576 23.2705 24.5399 23.2914L24.6634 22.8722C24.5811 22.8512 24.4576 22.8512 24.3753 22.8512ZM18.8597 23.8992C18.8597 24.507 19.2712 24.9472 19.9093 24.9472C20.1974 24.9472 20.4032 24.8843 20.609 24.7167L20.4032 24.3604C20.2386 24.4861 20.0739 24.5489 19.8887 24.5489C19.5388 24.5489 19.2919 24.2974 19.2919 23.8992C19.2919 23.522 19.5388 23.2704 19.8887 23.2495C20.0739 23.2495 20.2386 23.3123 20.4032 23.4381L20.609 23.0818C20.4032 22.9141 20.1974 22.8512 19.9093 22.8512C19.2712 22.8512 18.8597 23.2914 18.8597 23.8992ZM22.8523 23.8992V22.8932H22.4201V23.1446C22.276 22.9561 22.0703 22.8512 21.8027 22.8512C21.247 22.8512 20.8148 23.2914 20.8148 23.8992C20.8148 24.507 21.247 24.9472 21.8027 24.9472C22.0908 24.9472 22.2967 24.8424 22.4201 24.6538V24.9052H22.8523V23.8992ZM21.2676 23.8992C21.2676 23.5429 21.494 23.2495 21.8644 23.2495C22.2143 23.2495 22.4613 23.522 22.4613 23.8992C22.4613 24.2555 22.2143 24.5489 21.8644 24.5489C21.494 24.5279 21.2676 24.2555 21.2676 23.8992ZM16.1019 22.8512C15.5257 22.8512 15.114 23.2704 15.114 23.8992C15.114 24.528 15.5256 24.9472 16.1225 24.9472C16.4106 24.9472 16.6988 24.8633 16.9252 24.6748L16.7193 24.3604C16.5547 24.4861 16.3489 24.5699 16.1431 24.5699C15.8755 24.5699 15.608 24.4442 15.5462 24.0878H17.0075V23.9202C17.0281 23.2704 16.6577 22.8512 16.1019 22.8512ZM16.1018 23.2285C16.3693 23.2285 16.5547 23.3962 16.5957 23.7106H15.5667C15.6079 23.4381 15.7931 23.2285 16.1018 23.2285ZM26.8242 23.8992V22.0967H26.392V23.1446C26.2479 22.9561 26.0422 22.8512 25.7746 22.8512C25.2189 22.8512 24.7868 23.2914 24.7868 23.8992C24.7868 24.507 25.2189 24.9472 25.7746 24.9472C26.0628 24.9472 26.2686 24.8424 26.392 24.6538V24.9052H26.8242V23.8992ZM25.2396 23.8992C25.2396 23.5429 25.4659 23.2495 25.8364 23.2495C26.1863 23.2495 26.4332 23.522 26.4332 23.8992C26.4332 24.2555 26.1863 24.5489 25.8364 24.5489C25.4659 24.5279 25.2396 24.2555 25.2396 23.8992ZM10.792 23.8992V22.8932H10.3598V23.1446C10.2158 22.9561 10.01 22.8512 9.74241 22.8512C9.18675 22.8512 8.75456 23.2914 8.75456 23.8992C8.75456 24.507 9.18675 24.9472 9.74241 24.9472C10.0306 24.9472 10.2364 24.8424 10.3598 24.6538V24.9052H10.792V23.8992ZM9.18675 23.8992C9.18675 23.5429 9.41316 23.2495 9.78356 23.2495C10.1334 23.2495 10.3805 23.522 10.3805 23.8992C10.3805 24.2555 10.1334 24.5489 9.78356 24.5489C9.41316 24.5279 9.18675 24.2555 9.18675 23.8992Z" fill="#0B0B0B"/>
<path d="M12.7461 7.61426H19.2289V19.4774H12.7461V7.61426Z" fill="#FF5F00"/>
<path d="M13.1583 13.5455C13.1583 11.1352 14.2697 8.99723 15.9778 7.61385C14.7225 6.60781 13.1378 6 11.4091 6C7.31341 6 4 9.37446 4 13.5455C4 17.7165 7.31341 21.091 11.409 21.091C13.1377 21.091 14.7224 20.4832 15.9778 19.477C14.2697 18.1146 13.1583 15.9558 13.1583 13.5455Z" fill="#EB001B"/>
<path d="M27.9758 13.5455C27.9758 17.7164 24.6624 21.091 20.5669 21.091C18.8381 21.091 17.2535 20.4832 15.998 19.477C17.7268 18.0937 18.8176 15.9558 18.8176 13.5455C18.8176 11.1352 17.7062 8.99723 15.998 7.61385C17.2534 6.60781 18.8381 6 20.5669 6C24.6624 6 27.9758 9.39546 27.9758 13.5455Z" fill="#F79E1B"/>
<path d="M52.1496 9.19211L47.96 19.7129H45.2267L43.165 11.3163C43.04 10.8004 42.9314 10.6105 42.551 10.3924C41.9293 10.0368 40.9025 9.70434 40 9.4975L40.0609 9.19211H44.4614C45.0214 9.19211 45.5256 9.58461 45.6539 10.2642L46.7432 16.3528L49.4327 9.19211H52.1496ZM55.8446 9.19211L53.7067 19.7129H51.1208L53.2589 9.19211H55.8446ZM62.8591 16.2779C62.8699 13.5017 59.2124 13.3476 59.2362 12.1072C59.245 11.7301 59.5863 11.3287 60.3333 11.2261C60.7033 11.1757 61.7255 11.1355 62.8834 11.6971L63.3364 9.46474C62.7142 9.22789 61.9136 9 60.9177 9C58.3615 9 56.5634 10.4292 56.549 12.4774C56.5322 13.9924 57.8334 14.8367 58.8119 15.3413C59.8197 15.8566 60.1578 16.1878 60.1531 16.6483C60.1459 17.3542 59.3481 17.6667 58.6065 17.6783C57.306 17.7 56.5521 17.3083 55.9508 17.0134L55.4814 19.3197C56.0864 19.6116 57.2014 19.8651 58.3563 19.878C61.0738 19.878 62.8511 18.4651 62.8591 16.2779ZM69.6091 19.713H72L69.9112 9.19211H67.7054C67.2079 9.19211 66.7897 9.49605 66.6042 9.96329L62.7243 19.7129H65.4396L65.9783 18.1413H69.2957L69.6091 19.713ZM66.7229 15.9855L68.0844 12.0346L68.8665 15.9855H66.7229ZM59.1541 22.6089H58.1034V23.6383H59.2786V23.9478H57.7494V21.0921H59.2184V21.4016H58.1034V22.3038H59.154L59.1541 22.6089ZM59.8215 20.9397H60.1755V23.9476H59.8215V20.9397ZM61.0688 22.9901C61.0767 23.4945 61.3787 23.702 61.7367 23.702C61.9905 23.702 62.1474 23.6554 62.2764 23.5962L62.3406 23.8632C62.2159 23.9224 61.9986 23.9943 61.6885 23.9943C61.089 23.9943 60.7309 23.575 60.7309 22.9563C60.7309 22.3379 61.0767 21.8547 61.6444 21.8547C62.2844 21.8547 62.4494 22.4396 62.4494 22.8166C62.4494 22.8928 62.4452 22.9478 62.4371 22.9903L61.0688 22.9901ZM62.1071 22.7233C62.1112 22.4904 62.0146 22.1217 61.6161 22.1217C61.2539 22.1217 61.1009 22.4649 61.0726 22.7233H62.1071ZM64.3764 23.8757C64.2839 23.9224 64.0785 23.9945 63.817 23.9945C63.2294 23.9945 62.847 23.575 62.847 22.9479C62.847 22.3166 63.2574 21.8549 63.8934 21.8549C64.1026 21.8549 64.2878 21.9097 64.3844 21.965L64.3041 22.2488C64.2192 22.2022 64.0865 22.1512 63.8934 22.1512C63.4465 22.1512 63.2052 22.5029 63.2052 22.9268C63.2052 23.4012 63.495 23.6936 63.8814 23.6936C64.0826 23.6936 64.2154 23.6428 64.316 23.5962L64.3764 23.8757ZM65.3699 21.4057V21.8971H65.8769V22.1808H65.3699V23.2867C65.3699 23.5412 65.4384 23.685 65.6355 23.685C65.732 23.685 65.7885 23.6767 65.8409 23.6595L65.857 23.9437C65.7885 23.9689 65.6799 23.9943 65.543 23.9943C65.3779 23.9943 65.245 23.935 65.1606 23.8378C65.064 23.7232 65.0238 23.5412 65.0238 23.2996V22.1808H64.7218V21.8971H65.0238V21.5158L65.3699 21.4057ZM66.3715 22.537C66.3715 22.2954 66.3673 22.0879 66.3554 21.8971H66.6654L66.6816 22.3037H66.6934C66.7821 22.0286 66.9993 21.8547 67.2366 21.8547C67.273 21.8547 67.3013 21.8591 67.3335 21.8632V22.215C67.2973 22.2063 67.2611 22.2063 67.2125 22.2063C66.9632 22.2063 66.7859 22.4012 66.7377 22.6811C66.7294 22.7385 66.7254 22.7966 66.7256 22.8547V23.9479H66.3715V22.537ZM69.5104 22.9054C69.5104 23.6638 69.0071 23.9943 68.5404 23.9943C68.017 23.9943 67.6066 23.5875 67.6066 22.9395C67.6066 22.2572 68.0372 21.8549 68.5726 21.8549C69.132 21.8549 69.5104 22.2824 69.5104 22.9054ZM67.9688 22.9268C67.9688 23.3759 68.2103 23.715 68.5564 23.715C68.8946 23.715 69.148 23.38 69.148 22.9183C69.148 22.5709 68.983 22.1343 68.5644 22.1343C68.15 22.1343 67.9688 22.5413 67.9688 22.9268ZM70.0531 22.4522C70.0531 22.2363 70.0489 22.0667 70.0369 21.8974H70.3509L70.371 22.2363H70.379C70.4756 22.0455 70.701 21.855 71.023 21.855C71.2925 21.855 71.7113 22.0245 71.7113 22.7275V23.9479H71.3571V22.7658C71.3571 22.4355 71.2404 22.1599 70.9064 22.1599C70.6769 22.1599 70.4956 22.3337 70.4315 22.5412C70.4152 22.5879 70.4072 22.6513 70.4072 22.715V23.9479H70.0531V22.4522Z" fill="#0B0B0B"/>
</svg>
