<svg width="32" height="32" viewBox="0 0 32 32" fill="none" xmlns="http://www.w3.org/2000/svg">
<path d="M23.6638 5.94578C22.4663 4.63104 20.3017 4.06738 17.5326 4.06738H9.49569C9.2217 4.06734 8.95668 4.16148 8.7483 4.33287C8.53993 4.50425 8.40189 4.74164 8.359 5.00232L5.01259 25.4466C4.94607 25.8497 5.27014 26.2148 5.69433 26.2148H10.656L11.9021 18.6013L11.8634 18.8397C11.9522 18.3016 12.43 17.9046 12.9958 17.9046H15.3536C19.9855 17.9046 23.6123 16.0924 24.6717 10.8499C24.7032 10.6949 24.7304 10.544 24.754 10.3965C24.6203 10.3283 24.6203 10.3283 24.754 10.3965C25.0695 8.45886 24.7518 7.1399 23.6638 5.94578Z" fill="#27346A"/>
<path d="M13.8006 9.69851C13.9363 9.63619 14.0846 9.60395 14.2349 9.60414H20.5357C21.2818 9.60414 21.9777 9.65091 22.6136 9.7495C22.7916 9.77685 22.9686 9.80949 23.1445 9.84735C23.3937 9.90034 23.6401 9.96518 23.8827 10.0416C24.1953 10.1422 24.4865 10.2594 24.7541 10.3965C25.0695 8.45811 24.7518 7.1399 23.6638 5.94578C22.4656 4.63104 20.3017 4.06738 17.5326 4.06738H9.495C8.92911 4.06738 8.44768 4.46424 8.359 5.00232L5.01259 25.4459C4.94608 25.8497 5.27015 26.2142 5.69365 26.2142H10.656L13.2413 10.422C13.2667 10.2668 13.3309 10.1199 13.4284 9.99383C13.5258 9.8678 13.6536 9.76645 13.8006 9.69851Z" fill="#27346A"/>
<path d="M24.6707 10.8499C23.6112 16.0916 19.9845 17.9046 15.3525 17.9046H12.9941C12.4283 17.9046 11.9504 18.3015 11.8625 18.8397L10.3122 28.3062C10.2543 28.659 10.5376 28.9787 10.9081 28.9787H15.0907C15.3303 28.9786 15.562 28.8962 15.7441 28.7463C15.9263 28.5964 16.0469 28.3888 16.0844 28.1608L16.1251 27.9555L16.9134 23.1429L16.9642 22.8769C17.0017 22.649 17.1223 22.4414 17.3044 22.2915C17.4866 22.1416 17.7183 22.0591 17.9578 22.0591H18.5838C22.6355 22.0591 25.808 20.4735 26.7351 15.8877C27.1221 13.9713 26.9219 12.3713 25.8982 11.2475C25.5877 10.9071 25.2021 10.626 24.7529 10.3965C24.7286 10.5447 24.7022 10.6948 24.6707 10.8499Z" fill="#2790C3"/>
<path d="M23.6444 9.97113C23.4792 9.92467 23.3124 9.88353 23.1444 9.84779C22.9684 9.81053 22.7914 9.77812 22.6135 9.7506C21.9769 9.65135 21.2815 9.60449 20.5347 9.60449H14.2347C14.0844 9.60425 13.9359 9.63677 13.8005 9.69961C13.6532 9.76731 13.5253 9.86859 13.4278 9.99466C13.3303 10.1207 13.2662 10.2678 13.241 10.4231L11.902 18.6018L11.8633 18.8402C11.9514 18.302 12.4292 17.9051 12.9951 17.9051H15.3535C19.9854 17.9051 23.6121 16.0928 24.6716 10.8504C24.7031 10.6953 24.7296 10.5451 24.7539 10.397C24.4857 10.2606 24.1952 10.1426 23.8825 10.0427C23.8036 10.0175 23.7242 9.99366 23.6445 9.97113" fill="#1F264F"/>
</svg>
