<svg width="163" height="37" viewBox="0 0 163 37" fill="none" xmlns="http://www.w3.org/2000/svg">
<path d="M34.3546 34.5251V36.3887H33.9683V32.2879H35.5729C36.4729 32.2879 36.9695 32.6063 36.9695 33.3662C36.9886 33.584 36.933 33.8018 36.8119 33.9839C36.6908 34.166 36.5113 34.3014 36.3031 34.368C36.787 34.5336 36.8125 35.043 36.8294 35.476C36.8294 36.0958 36.8974 36.2656 36.9992 36.3462V36.3887H36.5747C36.4177 36.1085 36.4559 35.3401 36.3922 35.026C36.3031 34.6015 35.9677 34.5251 35.5771 34.5251H34.3546ZM35.5644 34.194C36.1417 34.194 36.5832 33.9562 36.5832 33.3789C36.5832 32.8016 36.1035 32.6148 35.5856 32.6148H34.3546V34.194H35.5644Z" fill="#222221"/>
<path d="M37.0669 36.4439H36.549V36.4142C36.4437 36.1202 36.3934 35.8094 36.4005 35.4972C36.396 35.3423 36.3819 35.1877 36.358 35.0345C36.2816 34.6525 36.0184 34.5803 35.5981 34.5803H34.435V36.4439H33.9341V32.2328H35.5981C36.5745 32.2328 37.05 32.6021 37.05 33.3662C37.0703 33.5736 37.0246 33.7822 36.9194 33.9621C36.8142 34.142 36.6549 34.2841 36.4641 34.3681C36.8887 34.5888 36.8887 35.1194 36.8887 35.4803C36.8887 36.0873 36.9566 36.2444 37.0372 36.3081H37.0585L37.0669 36.4439ZM36.617 36.3293H36.9141C36.7993 36.0619 36.754 35.7698 36.7825 35.4803C36.7825 34.9878 36.7231 34.5676 36.2986 34.4232L36.1627 34.3765L36.2943 34.3171C36.4927 34.2564 36.6641 34.129 36.7793 33.9565C36.8946 33.784 36.9467 33.577 36.9269 33.3705C36.9269 32.6743 36.5023 32.3516 35.5897 32.3516H34.0402V36.3378H34.3119V34.4784H35.5854C35.9505 34.4784 36.3538 34.5209 36.4344 35.026C36.4587 35.1849 36.4728 35.3451 36.4769 35.5057C36.4812 35.7851 36.5255 36.0625 36.6085 36.3293H36.617ZM35.5727 34.2492H34.2992V32.5512H35.5727C36.2731 32.5512 36.6255 32.8271 36.6255 33.3705C36.6255 33.9138 36.2476 34.2492 35.5642 34.2492H35.5727ZM34.4223 34.1346H35.5727C35.9293 34.1346 36.5363 34.0369 36.5363 33.3747C36.5363 32.8908 36.2349 32.6658 35.5939 32.6658H34.4223V34.1346Z" fill="#222221"/>
<path d="M40.1333 36.3887V32.2879H42.8586V32.619H40.5196V34.1006H42.6421V34.4317H40.5196V36.0618H42.9181V36.3929L40.1333 36.3887Z" fill="#222221"/>
<path d="M42.9716 36.4439H40.0723V32.2328H42.9165V32.6573H40.5774V34.0539H42.7V34.4784H40.5774V35.9939H42.9716V36.4439ZM40.1869 36.3293H42.857V36.1128H40.4628V34.3681H42.5853V34.1516H40.4628V32.5554H42.8018V32.3559H40.1869V36.3293Z" fill="#222221"/>
<path d="M47.7099 34.6015V34.2704H49.4674V36.3929H49.1362V35.6925C48.9859 35.9605 48.7612 36.1793 48.4893 36.3224C48.2173 36.4655 47.9098 36.5269 47.6038 36.4991C46.5637 36.4991 45.8081 35.7732 45.8081 34.3171C45.8081 33.1157 46.4109 32.1946 47.7057 32.1946C48.0994 32.1617 48.4913 32.2765 48.8052 32.5166C49.119 32.7567 49.3323 33.1049 49.4037 33.4936H49.0046C48.9349 33.211 48.7705 32.9608 48.5388 32.7847C48.3071 32.6086 48.022 32.5172 47.7311 32.5257C46.6486 32.5257 46.1944 33.3238 46.1944 34.4869C46.1944 35.3911 46.742 36.1849 47.6802 36.1849C47.9327 36.1934 48.1824 36.1305 48.4009 36.0037C48.6194 35.8768 48.7977 35.691 48.9155 35.4675C49.0391 35.202 49.0987 34.9112 49.0895 34.6185L47.7099 34.6015Z" fill="#222221"/>
<path d="M47.6038 36.55C46.4449 36.55 45.7529 35.701 45.7529 34.3128C45.7529 32.9247 46.4831 32.1224 47.7057 32.1224C48.1157 32.084 48.5252 32.201 48.853 32.4502C49.1809 32.6995 49.4032 33.0627 49.4759 33.4681V33.536H48.9622V33.4935C48.8978 33.2199 48.7392 32.9776 48.5141 32.8092C48.289 32.6408 48.0118 32.5569 47.7311 32.5724C46.5085 32.5724 46.2496 33.6082 46.2496 34.4742C46.2496 35.2637 46.6996 36.1128 47.6802 36.1128C47.9217 36.1179 48.16 36.0564 48.3689 35.9351C48.5778 35.8138 48.7493 35.6374 48.8646 35.4251C48.9777 35.1848 49.0357 34.9223 49.0344 34.6567H47.6505V34.2322H49.5183V36.4651H49.0938V35.8793C48.9235 36.1092 48.6971 36.2916 48.4363 36.409C48.1754 36.5264 47.8888 36.575 47.6038 36.55ZM47.7057 32.2328C46.5552 32.2328 45.8675 33.0096 45.8675 34.3086C45.8675 35.6076 46.517 36.4311 47.6038 36.4311C47.8999 36.4587 48.1976 36.3996 48.4607 36.2609C48.7238 36.1222 48.9408 35.91 49.0853 35.65L49.1914 35.4718V36.3208H49.4079V34.3171H47.7693V34.5336H49.1532V34.593C49.162 34.8948 49.0995 35.1944 48.9707 35.4675C48.8494 35.6986 48.6658 35.8911 48.4407 36.0231C48.2156 36.1552 47.958 36.2215 47.6972 36.2146C46.6826 36.2146 46.152 35.3317 46.152 34.4614C46.152 33.1624 46.7208 32.445 47.7481 32.445C48.0469 32.4321 48.3413 32.5208 48.5834 32.6965C48.8254 32.8723 49.0008 33.1248 49.0811 33.4129H49.3655C49.2805 33.0475 49.0649 32.7258 48.7591 32.5084C48.4534 32.291 48.0787 32.193 47.7057 32.2328Z" fill="#222221"/>
<path d="M52.7739 36.3887V32.2879H55.4993V32.619H53.1602V34.1006H55.2828V34.4317H53.1602V36.0618H55.5587V36.3929L52.7739 36.3887Z" fill="#222221"/>
<path d="M55.5962 36.4439H52.6968V32.2328H55.541V32.6573H53.1977V34.0539H55.3202V34.4784H53.1977V35.9939H55.5919L55.5962 36.4439ZM52.8114 36.3293H55.4815V36.1128H53.0873V34.3681H55.2099V34.1516H53.0873V32.5554H55.4264V32.3559H52.8114V36.3293Z" fill="#222221"/>
<path d="M58.9791 32.8101V36.3845H58.5928V32.2837H59.0173L61.386 35.8666V32.2837H61.7723V36.3845H61.3224L58.9791 32.8101Z" fill="#222221"/>
<path d="M61.8451 36.4438H61.306V36.4184L59.0434 32.9841V36.4481H58.5425V32.237H59.0689L61.3612 35.7052V32.237H61.8621L61.8451 36.4438ZM61.3697 36.3292H61.7305V32.3558H61.4588V35.9387H61.3739L61.3442 35.9132L58.9882 32.3558H58.6401V36.342H58.9118V32.7676H58.9967L59.0264 32.7931L61.3697 36.3292Z" fill="#222221"/>
<path d="M65.0615 36.3887V32.2879H67.7911V32.619H65.4521V34.1006H67.5746V34.4317H65.4521V36.0618H67.8463V36.3929L65.0615 36.3887Z" fill="#222221"/>
<path d="M67.9018 36.4439H65.0024V32.2328H67.8424V32.6573H65.5076V34.0539H67.6301V34.4784H65.5076V35.9939H67.9061L67.9018 36.4439ZM65.1171 36.3293H67.7872V36.1128H65.3887V34.3681H67.5113V34.1516H65.3887V32.5554H67.7278V32.3559H65.1128L65.1171 36.3293Z" fill="#222221"/>
<path d="M71.2838 34.5251V36.3887H70.8975V32.2879H72.5063C73.4063 32.2879 73.903 32.6063 73.903 33.3662C73.922 33.584 73.8664 33.8018 73.7453 33.9839C73.6242 34.166 73.4448 34.3014 73.2365 34.368C73.7204 34.5336 73.7501 35.043 73.7629 35.476C73.7629 36.0958 73.8308 36.2656 73.9327 36.3462V36.3887H73.5082C73.3511 36.1085 73.3893 35.3401 73.3256 35.026C73.2365 34.6015 72.9011 34.5251 72.5106 34.5251H71.2838ZM72.4936 34.194C73.0709 34.194 73.5124 33.9562 73.5124 33.3789C73.5124 32.8016 73.0327 32.6148 72.5191 32.6148H71.288V34.194H72.4936Z" fill="#222221"/>
<path d="M73.9991 36.4439H73.4812V36.4142C73.3759 36.1202 73.3255 35.8094 73.3326 35.4972C73.3277 35.3423 73.3135 35.1878 73.2901 35.0345C73.2137 34.6525 72.9505 34.5803 72.5303 34.5803H71.3671V36.4439H70.8662V32.2328H72.5303C73.5066 32.2328 73.9821 32.6021 73.9821 33.3662C74.0024 33.5736 73.9568 33.7822 73.8516 33.9621C73.7464 34.142 73.587 34.2841 73.3963 34.3681C73.8208 34.5888 73.8208 35.1194 73.8208 35.4803C73.8208 36.0873 73.8887 36.2444 73.9694 36.3081H73.9906L73.9991 36.4439ZM73.5491 36.3293H73.8463C73.7303 36.0622 73.685 35.7699 73.7147 35.4803C73.7147 34.9878 73.6552 34.5676 73.2307 34.4232L73.0949 34.3765L73.2265 34.3171C73.4244 34.2557 73.5953 34.1282 73.7104 33.9558C73.8256 33.7835 73.878 33.5768 73.859 33.3705C73.859 32.6743 73.4345 32.3516 72.5218 32.3516H70.9723V36.3378H71.244V34.4784H72.5175C72.8826 34.4784 73.2859 34.5209 73.3666 35.026C73.3905 35.1849 73.4047 35.3451 73.409 35.5057C73.41 35.7848 73.4514 36.0622 73.5321 36.3293H73.5491ZM72.5048 34.2492H71.2313V32.5512H72.5048C73.2052 32.5512 73.5576 32.8271 73.5576 33.3705C73.5576 33.9138 73.1713 34.2492 72.4921 34.2492H72.5048ZM71.3544 34.1346H72.5048C72.8614 34.1346 73.4684 34.0369 73.4684 33.3747C73.4684 32.8908 73.167 32.6658 72.5303 32.6658H71.3544V34.1346Z" fill="#222221"/>
<path d="M76.6826 36.3887L78.2915 32.2879H78.716L80.2867 36.3887H79.8876L79.4164 35.1152H77.5486L77.0647 36.3887H76.6826ZM77.6972 34.7713H79.3018L78.4995 32.619L77.6972 34.7713Z" fill="#222221"/>
<path d="M80.3667 36.4439H79.8445L79.3733 35.1704H77.5862L77.1022 36.4439H76.5801L78.2357 32.2328H78.7536V32.2667L80.3667 36.4439ZM79.9422 36.3293H80.2181L78.6899 32.3432H78.329L76.7626 36.3293H77.0385L77.5225 35.0558H79.471L79.9422 36.3293ZM79.3818 34.8265H77.6116L78.4946 32.4535L79.3818 34.8265ZM77.7772 34.7119H79.2163L78.4989 32.7804L77.7772 34.7119Z" fill="#222221"/>
<path d="M82.3188 32.2837H85.2904V32.6148H83.9914V36.3844H83.6009V32.6148H82.3188V32.2837Z" fill="#222221"/>
<path d="M84.0597 36.4439H83.5588V32.6743H82.2598V32.2498H85.3587V32.6743H84.0597V36.4439ZM83.6734 36.3293H83.9451V32.5596H85.244V32.3559H82.3744V32.5724H83.6734V36.3293Z" fill="#222221"/>
<path d="M88.3525 36.3887V32.2879H88.7431V36.3887H88.3525Z" fill="#222221"/>
<path d="M88.7929 36.4439H88.292V32.2328H88.7929V36.4439ZM88.4066 36.3293H88.6825V32.3559H88.4066V36.3293Z" fill="#222221"/>
<path d="M91.7988 32.2837H92.2233L93.4587 35.9302L94.6897 32.2837H95.1142L93.6879 36.3844H93.2634L91.7988 32.2837Z" fill="#222221"/>
<path d="M93.6878 36.4439H93.1784V36.4057L91.7266 32.2285H92.253V32.2668L93.4331 35.752L94.6217 32.2285H95.1481L95.1226 32.305L93.6878 36.4439ZM93.2633 36.3293H93.6071L94.991 32.3432H94.7066L93.4331 36.1085L93.3779 35.9472L92.1596 32.3559H91.8751L93.2633 36.3293Z" fill="#222221"/>
<path d="M97.9927 36.3887V32.2879H100.743V32.619H98.4044V34.1006H100.527V34.4317H98.4044V36.0618H100.799V36.3929L97.9927 36.3887Z" fill="#222221"/>
<path d="M100.837 36.4439H97.9375V32.2328H100.777V32.6573H98.4384V34.0539H100.561V34.4784H98.4384V35.9939H100.837V36.4439ZM98.0521 36.3293H100.743V36.1128H98.3238V34.3681H100.446V34.1516H98.3238V32.5554H100.663V32.3559H98.0479L98.0521 36.3293Z" fill="#222221"/>
<path d="M107.934 35.1619C107.937 35.3076 107.971 35.4511 108.034 35.5827C108.097 35.7144 108.186 35.8313 108.297 35.9259C108.408 36.0205 108.538 36.0905 108.678 36.1315C108.818 36.1725 108.965 36.1835 109.11 36.1637C109.844 36.1637 110.15 35.7647 110.15 35.3147C110.15 34.0412 107.649 34.8902 107.649 33.2771C107.649 32.7082 108.12 32.1776 109.042 32.1776C109.963 32.1776 110.425 32.7379 110.421 33.4002H110.052C110.052 33.273 110.026 33.1472 109.974 33.0312C109.922 32.9151 109.845 32.8115 109.75 32.7272C109.655 32.6428 109.543 32.5797 109.422 32.5421C109.3 32.5044 109.172 32.493 109.046 32.5087C108.26 32.5087 107.976 32.9926 108.044 33.4171C108.218 34.4742 110.544 33.7143 110.544 35.302C110.544 36.0533 109.992 36.4991 109.046 36.4991C108.197 36.4991 107.56 36.0746 107.56 35.1661L107.934 35.1619Z" fill="#222221"/>
<path d="M109.042 36.55C108.087 36.55 107.497 36.0194 107.497 35.1619V35.1067H107.985V35.1576C108.04 35.7902 108.409 36.1085 109.105 36.1085C109.725 36.1085 110.09 35.8114 110.09 35.3147C110.09 34.818 109.581 34.644 108.995 34.5039C108.337 34.3511 107.59 34.1728 107.59 33.2728C107.59 32.7167 108.04 32.1182 109.038 32.1182C109.237 32.1082 109.435 32.1379 109.623 32.2057C109.81 32.2735 109.982 32.3779 110.129 32.513C110.241 32.6301 110.329 32.7685 110.388 32.9201C110.446 33.0718 110.473 33.2335 110.468 33.3959V33.4554H109.984V33.3959C109.985 33.2753 109.96 33.1559 109.911 33.0456C109.862 32.9354 109.791 32.8368 109.701 32.7565C109.611 32.6762 109.505 32.6159 109.39 32.5798C109.274 32.5436 109.153 32.5324 109.033 32.5469C108.887 32.5336 108.739 32.5533 108.6 32.6048C108.462 32.6562 108.338 32.738 108.235 32.8441C108.172 32.9183 108.126 33.0054 108.101 33.0993C108.075 33.1932 108.07 33.2915 108.087 33.3874C108.159 33.8119 108.622 33.9223 109.161 34.0412C109.831 34.1855 110.587 34.3553 110.587 35.285C110.595 36.0831 110.018 36.55 109.042 36.55ZM107.611 35.2171C107.637 35.9812 108.167 36.4354 109.042 36.4354C109.916 36.4354 110.481 36.0109 110.481 35.2977C110.481 34.4487 109.802 34.3086 109.144 34.1685C108.588 34.0497 108.07 33.9308 107.981 33.4214C107.961 33.309 107.967 33.1937 107.997 33.0837C108.027 32.9737 108.081 32.8716 108.155 32.7846C108.267 32.6664 108.405 32.5749 108.558 32.5169C108.711 32.4589 108.875 32.4358 109.038 32.4493C109.167 32.4353 109.297 32.4476 109.421 32.4855C109.546 32.5234 109.661 32.5861 109.76 32.6699C109.859 32.7536 109.94 32.8567 109.999 32.9727C110.057 33.0887 110.091 33.2154 110.099 33.345H110.358C110.356 33.0638 110.245 32.7943 110.048 32.5936C109.912 32.469 109.753 32.3729 109.579 32.311C109.406 32.249 109.222 32.2224 109.038 32.2328C108.121 32.2328 107.705 32.7719 107.705 33.2771C107.705 34.0879 108.375 34.2449 109.025 34.3935C109.606 34.5294 110.209 34.6695 110.209 35.3147C110.209 35.7392 109.921 36.2231 109.11 36.2231C108.38 36.2231 107.955 35.8751 107.879 35.2213L107.611 35.2171Z" fill="#222221"/>
<path d="M113.631 36.3887V32.2879H114.018V34.4105L116.14 32.2879H116.565L114.947 33.9223L116.849 36.3887H116.378L114.68 34.16L114.035 34.8053V36.3887H113.631Z" fill="#222221"/>
<path d="M116.959 36.4439H116.344V36.4227L114.675 34.2449L114.094 34.8265V36.4439H113.593V32.2328H114.094V34.2747L116.114 32.2328H116.713L115.015 33.9308L116.959 36.4439ZM116.399 36.3293H116.726L114.862 33.9138L116.42 32.3389H116.14L113.962 34.5463V32.3559H113.69V36.342H113.962V34.7883L114.667 34.0539L114.705 34.1049L116.399 36.3293Z" fill="#222221"/>
<path d="M119.902 36.3887V32.2879H120.292V36.3887H119.902Z" fill="#222221"/>
<path d="M120.347 36.4439H119.846V32.2328H120.347V36.4439ZM119.961 36.3293H120.232V32.3559H119.961V36.3293Z" fill="#222221"/>
<path d="M124.093 32.811V36.3853H123.707V32.2846H124.131L126.5 35.8674V32.2846H126.886V36.3853H126.436L124.093 32.811Z" fill="#222221"/>
<path d="M126.961 36.4438H126.422V36.4184L124.159 32.9841V36.4481H123.658V32.237H124.185L126.477 35.7052V32.237H126.978L126.961 36.4438ZM126.485 36.3292H126.85V32.3558H126.579V35.9387H126.49L126.46 35.9132L124.091 32.3558H123.739V36.342H124.011V32.7676H124.1L124.129 32.7931L126.485 36.3292Z" fill="#222221"/>
<path d="M137.029 33.4766C136.984 33.1816 136.826 32.9157 136.588 32.7351C136.351 32.5545 136.052 32.4733 135.756 32.5087C134.763 32.5087 134.338 33.3577 134.338 34.3256C134.338 35.2935 134.673 36.1637 135.79 36.1637C136.105 36.163 136.41 36.049 136.648 35.8425C136.887 35.6361 137.043 35.3508 137.089 35.0388H137.513C137.453 35.4603 137.237 35.8438 136.908 36.1135C136.578 36.3832 136.16 36.5193 135.735 36.4948C134.461 36.4948 133.969 35.4972 133.969 34.3383C133.969 32.7719 134.788 32.1818 135.875 32.1818C136.256 32.1495 136.636 32.2671 136.932 32.5095C137.228 32.752 137.419 33.1004 137.462 33.4808L137.029 33.4766Z" fill="#222221"/>
<path d="M135.697 36.55C134.555 36.55 133.875 35.7222 133.875 34.3341C133.875 32.946 134.572 32.1182 135.841 32.1182C136.236 32.0868 136.628 32.2093 136.935 32.46C137.242 32.7108 137.44 33.0704 137.488 33.4639V33.5275H136.979V33.4851C136.936 33.1989 136.781 32.9414 136.549 32.7688C136.317 32.5962 136.025 32.5226 135.739 32.5639C134.737 32.5639 134.381 33.4723 134.381 34.3256C134.381 34.9921 134.559 36.1085 135.773 36.1085C136.075 36.1049 136.366 35.994 136.594 35.7958C136.822 35.5975 136.972 35.3247 137.017 35.026V34.9793H137.539V35.0473C137.478 35.4838 137.254 35.8812 136.912 36.1598C136.571 36.4385 136.137 36.5778 135.697 36.55ZM135.837 32.2328C134.988 32.2328 133.986 32.5979 133.986 34.3553C133.986 34.9878 134.151 36.4566 135.684 36.4566C136.083 36.4831 136.479 36.36 136.792 36.1113C137.106 35.8626 137.316 35.506 137.382 35.1109H137.098C137.042 35.4273 136.876 35.7138 136.63 35.9203C136.384 36.1268 136.073 36.24 135.752 36.2401C134.792 36.2401 134.245 35.5482 134.245 34.3426C134.245 33.4341 134.631 32.4705 135.718 32.4705C136.022 32.4305 136.33 32.5084 136.579 32.6884C136.828 32.8684 136.998 33.1368 137.055 33.4384H137.344C137.293 33.0842 137.11 32.7626 136.831 32.5387C136.551 32.3148 136.198 32.2055 135.841 32.2328H135.837Z" fill="#222221"/>
<path d="M140.222 36.3887L141.835 32.2879H142.259L143.83 36.3887H143.431L142.956 35.1152H141.088L140.604 36.3887H140.222ZM141.236 34.7713H142.845L142.043 32.619L141.236 34.7713Z" fill="#222221"/>
<path d="M143.919 36.4439H143.401L142.926 35.1704H141.134L140.651 36.4439H140.128L141.784 32.2328H142.298V32.2667L143.919 36.4439ZM143.495 36.3293H143.771L142.242 32.3432H141.882L140.315 36.3293H140.591L141.075 35.0558H143.024L143.495 36.3293ZM142.934 34.8265H141.164L142.051 32.4535L142.934 34.8265ZM141.326 34.7119H142.769L142.047 32.7804L141.326 34.7119Z" fill="#222221"/>
<path d="M147.13 34.5251V36.3887H146.744V32.2879H148.348C149.248 32.2879 149.745 32.6063 149.745 33.3662C149.764 33.584 149.708 33.8018 149.587 33.9839C149.466 34.166 149.287 34.3014 149.078 34.368C149.562 34.5336 149.592 35.043 149.605 35.476C149.605 36.0958 149.673 36.2656 149.775 36.3462V36.3887H149.35C149.189 36.1085 149.231 35.3401 149.168 35.026C149.078 34.6015 148.743 34.5251 148.353 34.5251H147.13ZM148.336 34.194C148.913 34.194 149.354 33.9562 149.354 33.3789C149.354 32.8016 148.875 32.6148 148.357 32.6148H147.13V34.194H148.336Z" fill="#222221"/>
<path d="M149.829 36.4439H149.311V36.4142C149.206 36.1216 149.156 35.8122 149.162 35.5015C149.16 35.3452 149.147 35.1892 149.124 35.0345C149.044 34.6525 148.785 34.5803 148.364 34.5803H147.206V36.4439H146.705V32.2328H148.369C149.345 32.2328 149.82 32.6021 149.82 33.3662C149.841 33.573 149.795 33.7809 149.689 33.9601C149.584 34.1393 149.425 34.2806 149.235 34.3638C149.659 34.5888 149.659 35.1194 149.659 35.4803C149.659 36.0873 149.727 36.2444 149.808 36.3081H149.829V36.4439ZM149.379 36.3293H149.676C149.56 36.0622 149.515 35.7699 149.545 35.4803C149.545 35.0048 149.485 34.5676 149.056 34.4232L148.921 34.3765L149.052 34.3171C149.25 34.2557 149.421 34.1282 149.536 33.9558C149.651 33.7835 149.704 33.5768 149.685 33.3705C149.685 32.6743 149.26 32.3516 148.343 32.3516H146.794V36.3378H147.07V34.4784H148.343C148.708 34.4784 149.107 34.5209 149.213 35.026C149.237 35.1863 149.252 35.3479 149.256 35.51C149.256 35.7877 149.298 36.0637 149.379 36.3293ZM148.335 34.2492H147.061V32.5512H148.335C149.035 32.5512 149.387 32.8271 149.387 33.3705C149.387 33.9138 149.018 34.2492 148.335 34.2492ZM147.184 34.1346H148.335C148.696 34.1346 149.298 34.0369 149.298 33.3747C149.298 32.8908 149.001 32.6658 148.36 32.6658H147.189L147.184 34.1346Z" fill="#222221"/>
<path d="M152.903 36.3887V32.2879H155.633V32.619H153.294V34.1006H155.416V34.4317H153.294V36.0618H155.688V36.3929L152.903 36.3887Z" fill="#222221"/>
<path d="M155.747 36.4439H152.847V32.2328H155.687V32.6573H153.348V34.0539H155.471V34.4784H153.348V35.9939H155.747V36.4439ZM152.962 36.3293H155.632V36.1128H153.233V34.3681H155.356V34.1516H153.233V32.5554H155.573V32.3559H152.958L152.962 36.3293Z" fill="#222221"/>
<path d="M160.112 32.2498C159.839 32.2473 159.568 32.3002 159.317 32.4053C159.065 32.5104 158.837 32.6654 158.647 32.8611C158.45 33.0475 158.293 33.2727 158.187 33.5226C158.081 33.7724 158.028 34.0415 158.031 34.3129C158.028 34.5906 158.079 34.8663 158.183 35.1239C158.286 35.3816 158.44 35.616 158.635 35.8135C158.83 36.0111 159.063 36.1678 159.319 36.2746C159.576 36.3814 159.851 36.436 160.129 36.4355C160.402 36.4418 160.673 36.3906 160.926 36.2853C161.178 36.18 161.405 36.0229 161.593 35.8242C161.792 35.6321 161.95 35.4011 162.056 35.1454C162.162 34.8898 162.214 34.6151 162.209 34.3384C162.215 34.0651 162.164 33.7935 162.058 33.5412C161.953 33.2889 161.796 33.0616 161.597 32.8738C161.405 32.6739 161.175 32.5153 160.919 32.408C160.664 32.3007 160.389 32.2468 160.112 32.2498Z" fill="#222221"/>
<path d="M66.9397 25.6572C66.7012 26.0493 66.4254 26.4175 66.1161 26.7567C65.8007 27.1139 65.4445 27.433 65.0549 27.7076C64.7185 27.9714 64.3063 28.1202 63.879 28.1321C63.7334 28.1428 63.5874 28.1201 63.452 28.0657C63.3166 28.0112 63.1954 27.9265 63.0979 27.8179C62.9232 27.6023 62.8313 27.3312 62.839 27.0538C62.8426 26.6801 62.9042 26.3092 63.0215 25.9543C63.1446 25.568 63.2719 25.1902 63.3951 24.8167L67.7972 12.1706H61.8541L61.7055 12.6927H65.0252L61.2046 23.6195C61.056 24.0441 60.9074 24.5068 60.7546 25.0204C60.613 25.4727 60.5372 25.9431 60.5296 26.417C60.4981 26.7387 60.5485 27.0631 60.6762 27.36C60.8039 27.6569 61.0046 27.9167 61.2598 28.1151C61.8449 28.4802 62.5281 28.6565 63.2168 28.6202C63.8912 28.6383 64.5591 28.4834 65.1568 28.1703C65.6722 27.8953 66.1384 27.5367 66.5364 27.109C66.8823 26.7376 67.1778 26.3223 67.4151 25.8737C67.6274 25.4492 67.7845 25.1605 67.8778 24.961L67.4533 24.7742C67.3007 25.079 67.1292 25.3739 66.9397 25.6572Z" fill="#222221"/>
<path d="M83.6534 11.9329C81.5139 11.9329 79.2386 13.5375 76.8274 16.7468H76.751L78.2792 12.1579H72.387L72.2385 12.68H75.6345L70.2603 28.1618H72.8328L75.6345 20.3678C76.0197 19.2697 76.5387 18.2232 77.1797 17.2519C77.7695 16.3506 78.4509 15.5127 79.2131 14.7516C79.8591 14.0952 80.5867 13.5246 81.3781 13.0536C81.9492 12.6897 82.6039 12.4778 83.2799 12.438C83.4915 12.4137 83.7059 12.4416 83.9042 12.5193C84.1025 12.597 84.2788 12.7221 84.4176 12.8838C84.6197 13.1552 84.7311 13.4835 84.7359 13.8219C84.714 14.3313 84.6123 14.8341 84.4345 15.3119L81.3017 24.2266C81.1786 24.6256 81.0724 24.9992 80.9833 25.343C80.898 25.6731 80.8538 26.0125 80.8517 26.3534C80.8267 26.6839 80.8898 27.0152 81.0345 27.3135C81.1791 27.6117 81.4002 27.8663 81.6752 28.0514C82.2818 28.4154 82.9804 28.5967 83.6874 28.5735C83.7426 28.5735 83.7935 28.5735 83.8487 28.5735C83.9209 28.4037 83.9973 28.2339 84.0737 28.0641C83.9582 28.0608 83.8453 28.0288 83.7453 27.971C83.6453 27.9132 83.5612 27.8314 83.5006 27.733C83.3743 27.4786 83.3103 27.1978 83.3138 26.9137C83.3149 26.5019 83.3779 26.0927 83.5006 25.6996C83.6237 25.2751 83.7596 24.8718 83.9251 24.4473L86.3533 17.5491C86.5486 16.976 86.7184 16.4878 86.8542 16.076C86.9889 15.6723 87.0577 15.2494 87.058 14.8238C87.064 14.4337 86.9855 14.047 86.828 13.6902C86.6704 13.3333 86.4375 13.0148 86.1453 12.7564C85.4517 12.1713 84.5591 11.8762 83.6534 11.9329Z" fill="#222221"/>
<path d="M3.47671 0H0V28.0642H3.47671V0Z" fill="#222221"/>
<path d="M10.7697 12.005H7.29297V28.0641H10.7697V12.005Z" fill="#222221"/>
<path d="M26.6245 14.1021L26.3613 13.8049C25.7403 13.0837 24.9679 12.5082 24.0992 12.1193C23.2305 11.7305 22.2868 11.5378 21.3352 11.555C20.2701 11.525 19.2128 11.7447 18.2479 12.1966C17.283 12.6485 16.4372 13.3199 15.7784 14.1573C14.4488 15.8624 13.7539 17.9771 13.8129 20.1386C13.7442 22.3423 14.5012 24.4921 15.9354 26.1666C16.5967 26.932 17.4193 27.5413 18.3441 27.9509C19.269 28.3605 20.2731 28.5601 21.2842 28.5353C22.2429 28.5316 23.1905 28.3293 24.0672 27.9414C24.9439 27.5534 25.7308 26.9882 26.3783 26.2812L26.6373 26.018V28.6712C26.6373 32.1479 25.1939 33.9096 22.3412 33.9096C20.796 33.9096 19.6032 33.379 18.7966 32.3219C18.4208 31.7834 18.1726 31.1665 18.0707 30.5178H14.5685C14.7283 32.362 15.6065 34.0696 17.0137 35.2723C18.3933 36.4184 20.172 37 22.3115 37C24.8586 37 26.8538 36.151 28.2928 34.4997C29.0683 33.6151 29.6007 32.5444 29.838 31.3923C29.936 30.8843 30.0054 30.3713 30.046 29.8555C30.097 29.274 30.1182 28.582 30.1182 27.8306V12.005H26.6245V14.1021ZM25.5845 23.8233C25.1642 24.3557 24.6241 24.7813 24.0081 25.0653C23.3921 25.3494 22.7177 25.4838 22.0398 25.4577C21.3681 25.4847 20.6995 25.3517 20.0891 25.0698C19.4788 24.7879 18.9441 24.365 18.5292 23.836C17.726 22.754 17.3171 21.4299 17.3703 20.0834C17.3141 18.7247 17.7229 17.3875 18.5292 16.2925C18.941 15.7581 19.4743 15.3295 20.0848 15.0424C20.6954 14.7552 21.3655 14.6177 22.0398 14.6412C22.6863 14.6256 23.3282 14.7529 23.9196 15.0141C24.5111 15.2754 25.0376 15.6641 25.4614 16.1525C26.3741 17.2449 26.8438 18.6401 26.7773 20.0622C26.8327 21.4169 26.4105 22.7481 25.5845 23.8233Z" fill="#222221"/>
<path d="M41.9797 11.5551C40.3562 11.5702 38.7997 12.2049 37.6285 13.3295L37.3781 13.5545V0H33.9014V28.0642H37.3781V20.3042C37.3781 18.2411 37.6413 16.8147 38.1889 15.953C38.7365 15.0912 39.7341 14.6795 41.101 14.6795C42.175 14.6795 42.9688 14.9936 43.4613 15.6176C43.9537 16.2416 44.1914 17.218 44.1914 18.5594V28.0811H47.6809V18.1901C47.6809 15.953 47.2224 14.3101 46.3097 13.304C45.7552 12.7196 45.0816 12.2611 44.3346 11.9594C43.5877 11.6576 42.7846 11.5198 41.9797 11.5551Z" fill="#222221"/>
<path d="M55.0796 6.01105H51.6029V12.0051H49.9897V15.2313H51.6029V28.0642H55.0796V15.2313H58.0172V12.0051H55.0796V6.01105Z" fill="#222221"/>
<path d="M119.941 24.7573C119.23 25.2463 118.38 25.4934 117.517 25.462C116.948 25.4806 116.381 25.382 115.852 25.1724C115.322 24.9628 114.842 24.6467 114.439 24.2436C113.61 23.339 113.131 22.1676 113.089 20.941V20.7797H124.823V20.0368C124.823 17.3921 124.135 15.2993 122.781 13.8092C121.427 12.3192 119.533 11.5551 117.182 11.5551C114.83 11.5551 112.958 12.3362 111.553 13.8772C110.148 15.4181 109.43 17.5194 109.43 20.0537C109.43 22.5881 110.16 24.6894 111.608 26.2346C113.055 27.7798 115.004 28.5354 117.373 28.5354C118.157 28.542 118.94 28.4537 119.703 28.2722C120.406 28.0944 121.076 27.808 121.69 27.4232C122.331 27.0209 122.914 26.5324 123.422 25.9714C123.975 25.355 124.466 24.6853 124.886 23.9719L121.97 22.3503C121.434 23.2611 120.748 24.0748 119.941 24.7573ZM113.34 17.7954C113.455 17.335 113.641 16.8954 113.892 16.4921C114.129 16.1156 114.427 15.7813 114.775 15.503C115.119 15.2314 115.507 15.019 115.921 14.8748C116.353 14.7283 116.806 14.6552 117.262 14.6583C119.347 14.6583 120.658 15.711 121.219 17.7954L121.27 17.9864H113.289L113.34 17.7954Z" fill="#222221"/>
<path d="M133.508 11.9796C132.83 12.364 132.221 12.8574 131.703 13.4399L131.444 13.7116V12.0135H127.968V28.0726H131.444V19.7311C131.444 16.5345 132.531 14.9129 134.683 14.9129C135.42 14.9365 136.133 15.1805 136.73 15.6134L138.317 12.438C137.437 11.8922 136.428 11.5877 135.392 11.5551C134.739 11.5439 134.093 11.6895 133.508 11.9796Z" fill="#222221"/>
<path d="M156.838 11.5551C155.921 11.5292 155.011 11.7312 154.191 12.1432C153.371 12.5551 152.666 13.164 152.139 13.9154L152.011 14.0894L151.892 13.9069C151.451 13.1794 150.827 12.5798 150.082 12.1673C149.338 11.7548 148.498 11.5438 147.647 11.5551C146.957 11.537 146.272 11.6825 145.648 11.9796C144.965 12.3866 144.35 12.8963 143.823 13.4909L143.564 13.7626V12.0263H140.087V28.0854H143.564V19.7651C143.564 18.0374 143.818 16.7426 144.315 15.9445C144.57 15.5286 144.934 15.1901 145.367 14.9657C145.8 14.7412 146.286 14.6393 146.773 14.671C148.543 14.671 149.443 16.1907 149.443 19.1878V28.0727H152.937V19.7651C152.937 18.0119 153.183 16.7129 153.671 15.9106C153.919 15.5028 154.274 15.1708 154.698 14.9507C155.122 14.7307 155.598 14.631 156.074 14.6625C156.482 14.6325 156.891 14.7156 157.255 14.9029C157.619 15.0901 157.924 15.3742 158.137 15.7238C158.532 16.3988 158.731 17.5407 158.731 19.1199V28.0345H162.225V18.1053C162.208 13.6777 160.451 11.5551 156.838 11.5551Z" fill="#222221"/>
<path d="M102.921 14.1276L102.662 13.8602C101.185 12.3319 99.4957 11.5551 97.6321 11.5551C96.6126 11.5366 95.6016 11.744 94.6717 12.1624C93.7419 12.5807 92.9161 13.1996 92.2536 13.9748C91.8048 14.4773 91.4198 15.0334 91.1074 15.6304C91.0352 15.7577 90.9716 15.8893 90.9079 16.0294C90.8102 16.2416 90.7253 16.4539 90.6447 16.6874C90.6065 16.8062 90.5683 16.9251 90.547 17.0397C90.2558 18.003 90.1126 19.005 90.1225 20.0113C90.0491 22.2454 90.8087 24.4271 92.2536 26.1327C92.9336 26.9066 93.7745 27.5226 94.7175 27.9377C95.6604 28.3527 96.6827 28.5567 97.7127 28.5354C98.6376 28.5294 99.552 28.3386 100.402 27.9741C101.252 27.6096 102.021 27.0787 102.662 26.4128L102.917 26.1624V28.0854H106.411V0H102.917L102.921 14.1276ZM101.826 23.9634C101.387 24.4537 100.845 24.8416 100.239 25.0997C99.633 25.3579 98.9779 25.4801 98.3198 25.4577C97.6781 25.4691 97.042 25.3362 96.4586 25.0687C95.8752 24.8013 95.3594 24.4061 94.9492 23.9125C94.0561 22.8037 93.596 21.4083 93.6544 19.9858C93.614 18.6015 94.0873 17.2511 94.9831 16.1949C95.3969 15.7064 95.9138 15.3156 96.4966 15.0507C97.0794 14.7857 97.7136 14.6531 98.3537 14.6625C99.0081 14.6431 99.6587 14.7685 100.259 15.0297C100.859 15.291 101.394 15.6816 101.826 16.1737C102.688 17.289 103.156 18.6588 103.156 20.0686C103.156 21.4783 102.688 22.8482 101.826 23.9634Z" fill="#222221"/>
</svg>
